<svg width="593" height="176" viewBox="0 0 593 176" fill="none" xmlns="http://www.w3.org/2000/svg">
<path d="M87.725 0C64.4589 5.5984e-07 42.1457 9.24243 25.6941 25.6941C9.24244 42.1457 9.79358e-06 64.4589 0 87.725C1.01789e-05 110.991 9.24244 133.304 25.6941 149.756C42.1457 166.208 64.4589 175.45 87.725 175.45C110.991 175.45 133.304 166.208 149.756 149.756C166.208 133.304 175.45 110.991 175.45 87.725C175.45 64.4589 166.208 42.1457 149.756 25.6941C133.304 9.24243 110.991 -2.90827e-06 87.725 0ZM77.7653 17.2665L99.1881 30.863L102.792 53.568L95.3855 58.5534L89.4384 110.828L75.9745 116.864L67.0208 105.555L60.8637 36.6221L77.7653 17.2665ZM122.678 44.2495L139.16 66.9102L118.986 138.718L97.7621 107.103L92.8983 109.292L98.4474 60.4105L116.742 48.1073L122.678 44.2495ZM60.2225 102.228L73.7527 119.284L71.3429 150.147L58.2991 147.914L43.3761 107.722L60.2225 102.228ZM96.5904 111.204L116.068 140.221L89.3057 153.232L74.5486 150.7L76.9473 120.014L96.5904 111.204Z" fill="white"/>
<path d="M260.488 76.9992L256.988 65.3792H240.678L237.178 76.9992H226.398L242.498 28.1392H255.658L271.548 76.9992H260.488ZM248.938 37.7992H248.588L243.198 56.3492H254.398L248.938 37.7992Z" fill="white"/>
<path d="M277.748 76.9992V40.2492H288.108V46.4792H288.528C289.182 44.5192 290.302 42.8626 291.888 41.5092C293.475 40.1092 295.645 39.4092 298.398 39.4092C300.918 39.4092 303.065 40.0392 304.838 41.2992C306.612 42.5592 307.895 44.4026 308.688 46.8292H308.898C309.225 45.8026 309.715 44.8459 310.368 43.9592C311.068 43.0259 311.908 42.2326 312.888 41.5792C313.868 40.9259 314.965 40.4126 316.178 40.0392C317.392 39.6192 318.698 39.4092 320.098 39.4092C323.645 39.4092 326.352 40.6692 328.218 43.1892C330.132 45.7092 331.088 49.3026 331.088 53.9692V76.9992H320.728V54.8092C320.728 50.1426 319.048 47.8092 315.688 47.8092C314.148 47.8092 312.748 48.2526 311.488 49.1392C310.228 50.0259 309.598 51.3792 309.598 53.1992V76.9992H299.238V54.8092C299.238 50.1426 297.558 47.8092 294.198 47.8092C293.452 47.8092 292.705 47.9259 291.958 48.1592C291.258 48.3459 290.605 48.6726 289.998 49.1392C289.438 49.6059 288.972 50.1892 288.598 50.8892C288.272 51.5426 288.108 52.3126 288.108 53.1992V76.9992H277.748Z" fill="white"/>
<path d="M355.627 77.8392C352.827 77.8392 350.331 77.3959 348.137 76.5092C345.944 75.5759 344.077 74.2926 342.537 72.6592C341.044 70.9792 339.901 68.9492 339.107 66.5692C338.361 64.1892 337.987 61.5292 337.987 58.5892C337.987 55.6959 338.361 53.0826 339.107 50.7492C339.854 48.3692 340.951 46.3392 342.397 44.6592C343.891 42.9792 345.711 41.6959 347.857 40.8092C350.004 39.8759 352.454 39.4092 355.207 39.4092C358.241 39.4092 360.831 39.9226 362.977 40.9492C365.171 41.9759 366.944 43.3526 368.297 45.0792C369.697 46.8059 370.701 48.8126 371.307 51.0992C371.961 53.3392 372.287 55.6959 372.287 58.1692V61.2492H348.697V61.8092C348.697 64.2359 349.351 66.1726 350.657 67.6192C351.964 69.0192 354.017 69.7192 356.817 69.7192C358.964 69.7192 360.714 69.2992 362.067 68.4592C363.421 67.5726 364.681 66.5225 365.847 65.3092L371.027 71.7492C369.394 73.6626 367.247 75.1559 364.587 76.2292C361.974 77.3026 358.987 77.8392 355.627 77.8392ZM355.417 47.0392C353.317 47.0392 351.661 47.7392 350.447 49.1392C349.281 50.4926 348.697 52.3126 348.697 54.5992V55.1592H361.577V54.5292C361.577 52.2892 361.064 50.4926 360.037 49.1392C359.057 47.7392 357.517 47.0392 355.417 47.0392Z" fill="white"/>
<path d="M392.484 76.9992C388.891 76.9992 386.161 76.0892 384.294 74.2692C382.474 72.4492 381.564 69.7892 381.564 66.2892V48.2992H376.384V40.2492H378.974C380.374 40.2492 381.331 39.9225 381.844 39.2692C382.357 38.5692 382.614 37.5892 382.614 36.3292V30.3092H391.924V40.2492H399.204V48.2992H391.924V68.9492H398.644V76.9992H392.484Z" fill="white"/>
<path d="M406.401 25.1992H416.761V46.4792H417.181C417.834 44.5659 418.977 42.9092 420.611 41.5092C422.244 40.1092 424.507 39.4092 427.401 39.4092C431.181 39.4092 434.027 40.6692 435.941 43.1892C437.901 45.7092 438.881 49.3026 438.881 53.9692V76.9992H428.521V54.8092C428.521 52.4292 428.147 50.6792 427.401 49.5592C426.654 48.3926 425.324 47.8092 423.411 47.8092C422.571 47.8092 421.754 47.9259 420.961 48.1592C420.167 48.3459 419.444 48.6726 418.791 49.1392C418.184 49.6059 417.694 50.1892 417.321 50.8892C416.947 51.5426 416.761 52.3126 416.761 53.1992V76.9992H406.401V25.1992Z" fill="white"/>
<path d="M470.023 40.2492H479.683L465.543 82.6692C464.61 85.5159 463.28 87.6159 461.553 88.9692C459.873 90.3226 457.446 90.9992 454.273 90.9992H447.833V82.9492H454.763L456.023 78.8892L443.143 40.2492H453.433L458.823 57.3992L461.483 68.0392H461.903L464.633 57.3992L470.023 40.2492Z" fill="white"/>
<path d="M496.79 77.8392C493.244 77.8392 490.257 77.2792 487.83 76.1592C485.404 74.9926 483.234 73.3592 481.32 71.2592L487.41 65.0992C488.717 66.5459 490.164 67.6892 491.75 68.5292C493.337 69.3692 495.134 69.7892 497.14 69.7892C499.194 69.7892 500.617 69.4859 501.41 68.8792C502.204 68.2259 502.6 67.3626 502.6 66.2892C502.6 64.5626 501.364 63.5359 498.89 63.2092L494.9 62.7192C486.64 61.6925 482.51 57.9126 482.51 51.3792C482.51 49.6059 482.837 47.9959 483.49 46.5492C484.19 45.0559 485.147 43.7959 486.36 42.7692C487.62 41.6959 489.114 40.8792 490.84 40.3192C492.614 39.7126 494.597 39.4092 496.79 39.4092C498.704 39.4092 500.384 39.5492 501.83 39.8292C503.324 40.0626 504.63 40.4359 505.75 40.9492C506.917 41.4159 507.967 42.0226 508.9 42.7692C509.88 43.4692 510.837 44.2626 511.77 45.1492L505.82 51.2392C504.654 50.0726 503.324 49.1626 501.83 48.5092C500.384 47.8092 498.89 47.4592 497.35 47.4592C495.577 47.4592 494.317 47.7392 493.57 48.2992C492.824 48.8592 492.45 49.6059 492.45 50.5392C492.45 51.5192 492.707 52.2892 493.22 52.8492C493.78 53.3626 494.807 53.7359 496.3 53.9692L500.43 54.5292C508.504 55.6026 512.54 59.2892 512.54 65.5892C512.54 67.3626 512.167 68.9959 511.42 70.4892C510.674 71.9826 509.6 73.2892 508.2 74.4092C506.847 75.4826 505.19 76.3226 503.23 76.9292C501.317 77.5359 499.17 77.8392 496.79 77.8392Z" fill="white"/>
<path d="M531.937 76.9992C528.344 76.9992 525.614 76.0892 523.747 74.2692C521.927 72.4492 521.017 69.7892 521.017 66.2892V48.2992H515.837V40.2492H518.427C519.827 40.2492 520.784 39.9225 521.297 39.2692C521.81 38.5692 522.067 37.5892 522.067 36.3292V30.3092H531.377V40.2492H538.657V48.2992H531.377V68.9492H538.097V76.9992H531.937Z" fill="white"/>
<path d="M230.388 150.999V102.139H262.798V111.589H241.028V121.599H259.578V130.979H241.028V150.999H230.388Z" fill="white"/>
<path d="M283.43 151.839C280.723 151.839 278.297 151.396 276.15 150.509C274.05 149.623 272.253 148.339 270.76 146.659C269.313 144.979 268.193 142.949 267.4 140.569C266.607 138.189 266.21 135.529 266.21 132.589C266.21 129.649 266.607 126.989 267.4 124.609C268.193 122.229 269.313 120.223 270.76 118.589C272.253 116.909 274.05 115.626 276.15 114.739C278.297 113.853 280.723 113.409 283.43 113.409C286.137 113.409 288.54 113.853 290.64 114.739C292.787 115.626 294.583 116.909 296.03 118.589C297.523 120.223 298.667 122.229 299.46 124.609C300.253 126.989 300.65 129.649 300.65 132.589C300.65 135.529 300.253 138.189 299.46 140.569C298.667 142.949 297.523 144.979 296.03 146.659C294.583 148.339 292.787 149.623 290.64 150.509C288.54 151.396 286.137 151.839 283.43 151.839ZM283.43 143.649C285.483 143.649 287.07 143.019 288.19 141.759C289.31 140.499 289.87 138.703 289.87 136.369V128.879C289.87 126.546 289.31 124.749 288.19 123.489C287.07 122.229 285.483 121.599 283.43 121.599C281.377 121.599 279.79 122.229 278.67 123.489C277.55 124.749 276.99 126.546 276.99 128.879V136.369C276.99 138.703 277.55 140.499 278.67 141.759C279.79 143.019 281.377 143.649 283.43 143.649Z" fill="white"/>
<path d="M329.732 144.839H329.382C329.055 145.773 328.612 146.659 328.052 147.499C327.538 148.339 326.862 149.086 326.022 149.739C325.182 150.393 324.178 150.906 323.012 151.279C321.892 151.653 320.585 151.839 319.092 151.839C315.312 151.839 312.442 150.603 310.482 148.129C308.568 145.609 307.612 142.016 307.612 137.349V114.249H317.972V136.439C317.972 138.679 318.368 140.406 319.162 141.619C319.955 142.833 321.308 143.439 323.222 143.439C324.015 143.439 324.808 143.323 325.602 143.089C326.395 142.856 327.095 142.529 327.702 142.109C328.308 141.643 328.798 141.083 329.172 140.429C329.545 139.776 329.732 139.006 329.732 138.119V114.249H340.092V150.999H329.732V144.839Z" fill="white"/>
<path d="M349.731 150.999V114.249H360.091V120.479H360.511C361.164 118.566 362.307 116.909 363.941 115.509C365.574 114.109 367.837 113.409 370.731 113.409C374.511 113.409 377.357 114.669 379.271 117.189C381.231 119.709 382.211 123.303 382.211 127.969V150.999H371.851V128.809C371.851 126.429 371.477 124.679 370.731 123.559C369.984 122.393 368.654 121.809 366.741 121.809C365.901 121.809 365.084 121.926 364.291 122.159C363.497 122.346 362.774 122.673 362.121 123.139C361.514 123.606 361.024 124.189 360.651 124.889C360.277 125.543 360.091 126.313 360.091 127.199V150.999H349.731Z" fill="white"/>
<path d="M413.97 144.839H413.62C413.34 145.819 412.897 146.753 412.29 147.639C411.683 148.479 410.937 149.226 410.05 149.879C409.21 150.486 408.23 150.953 407.11 151.279C406.037 151.653 404.917 151.839 403.75 151.839C399.083 151.839 395.56 150.206 393.18 146.939C390.8 143.626 389.61 138.843 389.61 132.589C389.61 126.336 390.8 121.576 393.18 118.309C395.56 115.043 399.083 113.409 403.75 113.409C406.13 113.409 408.23 114.063 410.05 115.369C411.917 116.676 413.107 118.356 413.62 120.409H413.97V99.1992H424.33V150.999H413.97V144.839ZM407.18 143.439C409.14 143.439 410.75 142.973 412.01 142.039C413.317 141.059 413.97 139.729 413.97 138.049V127.199C413.97 125.519 413.317 124.213 412.01 123.279C410.75 122.299 409.14 121.809 407.18 121.809C405.22 121.809 403.587 122.509 402.28 123.909C401.02 125.263 400.39 127.106 400.39 129.439V135.809C400.39 138.143 401.02 140.009 402.28 141.409C403.587 142.763 405.22 143.439 407.18 143.439Z" fill="white"/>
<path d="M461.178 150.999C459.311 150.999 457.748 150.416 456.488 149.249C455.275 148.083 454.505 146.519 454.178 144.559H453.758C453.198 146.939 451.961 148.759 450.048 150.019C448.135 151.233 445.778 151.839 442.978 151.839C439.291 151.839 436.468 150.859 434.508 148.899C432.548 146.939 431.568 144.349 431.568 141.129C431.568 137.256 432.968 134.386 435.768 132.519C438.615 130.606 442.465 129.649 447.318 129.649H453.128V127.339C453.128 125.566 452.661 124.166 451.728 123.139C450.795 122.066 449.231 121.529 447.038 121.529C444.985 121.529 443.351 121.973 442.138 122.859C440.925 123.746 439.921 124.749 439.128 125.869L432.968 120.409C434.461 118.216 436.328 116.513 438.568 115.299C440.855 114.039 443.935 113.409 447.808 113.409C453.035 113.409 456.955 114.553 459.568 116.839C462.181 119.126 463.488 122.463 463.488 126.849V142.949H466.918V150.999H461.178ZM446.828 144.629C448.555 144.629 450.025 144.256 451.238 143.509C452.498 142.763 453.128 141.549 453.128 139.869V135.529H448.088C444.028 135.529 441.998 136.906 441.998 139.659V140.709C441.998 142.063 442.418 143.066 443.258 143.719C444.098 144.326 445.288 144.629 446.828 144.629Z" fill="white"/>
<path d="M486.341 150.999C482.748 150.999 480.018 150.089 478.151 148.269C476.331 146.449 475.421 143.789 475.421 140.289V122.299H470.241V114.249H472.831C474.231 114.249 475.188 113.923 475.701 113.269C476.215 112.569 476.471 111.589 476.471 110.329V104.309H485.781V114.249H493.061V122.299H485.781V142.949H492.501V150.999H486.341Z" fill="white"/>
<path d="M505.438 110.329C503.338 110.329 501.798 109.863 500.818 108.929C499.885 107.949 499.418 106.713 499.418 105.219V103.679C499.418 102.186 499.885 100.973 500.818 100.039C501.798 99.0592 503.338 98.5692 505.438 98.5692C507.538 98.5692 509.055 99.0592 509.988 100.039C510.968 100.973 511.458 102.186 511.458 103.679V105.219C511.458 106.713 510.968 107.949 509.988 108.929C509.055 109.863 507.538 110.329 505.438 110.329ZM500.258 114.249H510.618V150.999H500.258V114.249Z" fill="white"/>
<path d="M535.197 151.839C532.491 151.839 530.064 151.396 527.917 150.509C525.817 149.623 524.021 148.339 522.527 146.659C521.081 144.979 519.961 142.949 519.167 140.569C518.374 138.189 517.977 135.529 517.977 132.589C517.977 129.649 518.374 126.989 519.167 124.609C519.961 122.229 521.081 120.223 522.527 118.589C524.021 116.909 525.817 115.626 527.917 114.739C530.064 113.853 532.491 113.409 535.197 113.409C537.904 113.409 540.307 113.853 542.407 114.739C544.554 115.626 546.351 116.909 547.797 118.589C549.291 120.223 550.434 122.229 551.227 124.609C552.021 126.989 552.417 129.649 552.417 132.589C552.417 135.529 552.021 138.189 551.227 140.569C550.434 142.949 549.291 144.979 547.797 146.659C546.351 148.339 544.554 149.623 542.407 150.509C540.307 151.396 537.904 151.839 535.197 151.839ZM535.197 143.649C537.251 143.649 538.837 143.019 539.957 141.759C541.077 140.499 541.637 138.703 541.637 136.369V128.879C541.637 126.546 541.077 124.749 539.957 123.489C538.837 122.229 537.251 121.599 535.197 121.599C533.144 121.599 531.557 122.229 530.437 123.489C529.317 124.749 528.757 126.546 528.757 128.879V136.369C528.757 138.703 529.317 140.499 530.437 141.759C531.557 143.019 533.144 143.649 535.197 143.649Z" fill="white"/>
<path d="M559.799 150.999V114.249H570.159V120.479H570.579C571.232 118.566 572.376 116.909 574.009 115.509C575.642 114.109 577.906 113.409 580.799 113.409C584.579 113.409 587.426 114.669 589.339 117.189C591.299 119.709 592.279 123.303 592.279 127.969V150.999H581.919V128.809C581.919 126.429 581.546 124.679 580.799 123.559C580.052 122.393 578.722 121.809 576.809 121.809C575.969 121.809 575.152 121.926 574.359 122.159C573.566 122.346 572.842 122.673 572.189 123.139C571.582 123.606 571.092 124.189 570.719 124.889C570.346 125.543 570.159 126.313 570.159 127.199V150.999H559.799Z" fill="white"/>
</svg>
