<svg width="314" height="92" viewBox="0 0 314 92" fill="none" xmlns="http://www.w3.org/2000/svg">
<path fill-rule="evenodd" clip-rule="evenodd" d="M21.2654 53.5981C19.1196 53.5981 18.0466 50.9262 17.5101 49.1449C18.0466 49.1449 18.5831 49.1449 19.1196 49.3231C20.1925 49.5012 21.4443 49.8574 22.1596 50.7481C23.0537 51.9949 22.1596 53.5981 21.2654 53.5981ZM37.3596 53.5981C39.5055 53.5981 40.5784 50.9262 41.1149 49.1449C40.5784 49.1449 40.0419 49.1449 39.5055 49.3231C38.4325 49.5012 37.1808 49.8574 36.4655 50.7481C35.5713 51.9949 36.4655 53.5981 37.3596 53.5981ZM29.1337 84.5919H29.3125C31.6372 81.3856 32.1737 75.3294 29.1337 72.3012C26.4513 75.5075 26.809 81.3856 29.1337 84.5919ZM29.1337 0.872986H29.3125C32.3525 3.01049 34.6772 5.14799 36.8231 8.35425C43.9761 18.1511 48.4467 34.0043 47.0161 45.7606C50.4137 47.1856 53.0961 49.6793 54.7055 52.5293C57.5667 57.3387 58.6396 66.9575 54.7055 71.945C49.5196 69.095 42.1878 66.9575 34.6772 68.9169L33.2466 69.6294C37.1808 74.9731 37.1808 81.92 33.6043 87.2638C31.9949 89.5794 30.9219 90.2919 29.1337 91.895C27.3455 90.2919 26.0937 89.2231 24.6631 87.2638C21.0866 81.92 21.0866 74.9731 25.0207 69.6294L23.5902 68.9169C16.2584 66.7794 8.74777 69.095 3.56188 71.945C-0.551072 66.9575 0.700695 57.3387 3.56188 52.5293C5.35012 49.5012 8.03247 47.1856 11.2513 45.7606C9.99954 33.8262 14.4701 17.973 21.6231 8.17612C23.9478 5.14799 26.0937 2.83236 29.1337 0.872986ZM52.202 65.1762C52.9173 61.6137 52.3808 57.8731 50.5926 55.0231C49.5196 53.2418 48.089 51.8168 46.122 50.7481C45.5855 52.3512 45.049 53.7762 44.1549 55.0231C41.8302 58.7637 36.4655 60.3668 33.0678 56.9825C28.4184 52.5293 31.816 43.8012 41.1149 44.1574L42.1878 44.3356C43.4396 32.5793 37.8961 15.3011 29.3125 7.46362C20.5501 15.3011 15.1854 32.5793 16.4372 44.3356L17.5101 44.1574C26.809 43.8012 30.2066 52.5293 25.5572 56.9825C22.1596 60.1887 16.7948 58.7637 14.4701 55.0231C13.7548 53.7762 13.0395 52.3512 12.5031 50.7481C10.536 51.8168 9.10542 53.2418 8.03247 55.0231C6.24424 57.8731 5.70776 61.6137 6.42306 65.1762C14.649 62.1481 21.2654 62.3262 29.3125 65.7106C37.3596 62.1481 43.9761 62.1481 52.202 65.1762Z" fill="white"/>
<path d="M82.0654 45.0481H98.1596V32.5793H102.988V62.3262H98.1596V49.6793H82.0654V62.3262H77.2372V32.5793H82.0654V45.0481Z" fill="white"/>
<path d="M128.56 52.1731C128.56 52.7075 128.56 53.2418 128.56 53.7762H113.36C113.896 57.5168 116.579 58.9418 119.44 58.9418C121.407 58.9418 123.731 58.0512 125.341 56.8043L127.487 60.0106C124.983 62.1481 122.122 62.8606 119.082 62.8606C113.002 62.8606 108.531 58.5856 108.531 52.1731C108.531 45.7606 112.644 41.4856 118.724 41.4856C124.626 41.4856 128.56 45.7606 128.56 52.1731ZM113.36 50.3918H123.91C123.374 47.1856 121.586 45.4043 118.724 45.4043C115.684 45.4043 113.896 47.3637 113.36 50.3918Z" fill="white"/>
<path d="M147.336 42.0199L146.263 46.4731C145.369 45.9387 143.939 45.7606 142.866 45.7606C140.004 45.7606 138.037 47.7199 138.037 51.2825V62.5044H133.567V42.0199H138.037V44.3356C139.468 42.3762 141.435 41.4856 143.939 41.4856C145.369 41.4856 146.442 41.6637 147.336 42.0199Z" fill="white"/>
<path d="M171.12 52.1731C171.12 58.2293 166.47 62.8606 160.033 62.8606C153.595 62.8606 148.946 58.2293 148.946 52.1731C148.946 46.1168 153.595 41.4856 160.033 41.4856C166.47 41.4856 171.12 46.1168 171.12 52.1731ZM153.595 52.1731C153.595 56.0918 156.277 58.7637 160.033 58.7637C163.788 58.7637 166.47 56.0918 166.47 52.1731C166.47 48.2543 163.609 45.5824 160.033 45.5824C156.456 45.5824 153.595 48.2543 153.595 52.1731Z" fill="white"/>
<path d="M181.492 34.8949C181.492 36.6762 180.061 37.923 178.273 37.923C176.485 37.923 175.233 36.498 175.233 34.8949C175.233 33.1137 176.663 31.6887 178.273 31.6887C180.061 31.6887 181.492 33.1137 181.492 34.8949ZM180.598 62.3262H176.127V42.0199H180.598V62.3262Z" fill="white"/>
<path d="M204.023 44.6918L201.162 47.7199C199.732 46.2949 198.301 45.5824 196.334 45.5824C192.936 45.5824 190.254 48.2543 190.254 52.1731C190.254 56.0918 192.936 58.7637 196.334 58.7637C198.301 58.7637 200.089 57.8731 201.341 56.6262L204.023 59.6543C202.235 61.7918 199.374 62.8606 196.334 62.8606C189.896 62.8606 185.604 58.2293 185.604 52.1731C185.604 46.1168 189.896 41.4856 196.334 41.4856C199.553 41.4856 202.235 42.5543 204.023 44.6918Z" fill="white"/>
<path d="M241.576 62.3262H220.118V32.5793H224.946V57.8731H241.576V62.3262Z" fill="white"/>
<path d="M265.002 62.3262H260.532V59.8325C259.101 61.6137 256.955 62.8606 254.094 62.8606C248.372 62.8606 243.901 58.4075 243.901 52.1731C243.901 45.9387 248.372 41.4856 254.094 41.4856C256.955 41.4856 259.101 42.7324 260.532 44.5137V42.0199H265.002V62.3262ZM248.55 52.1731C248.55 55.7356 250.875 58.7637 254.809 58.7637C258.565 58.7637 261.068 55.9137 261.068 52.1731C261.068 48.4324 258.565 45.5824 254.809 45.5824C250.875 45.5824 248.55 48.6106 248.55 52.1731Z" fill="white"/>
<path d="M292.541 52.1731C292.541 58.4075 288.071 62.8606 282.348 62.8606C279.487 62.8606 277.341 61.6137 275.911 59.8325V62.3262H271.44V31.6887H275.911V44.3356C277.341 42.5543 279.487 41.3074 282.348 41.3074C288.071 41.4856 292.541 45.9387 292.541 52.1731ZM275.732 52.1731C275.732 55.9137 278.235 58.7637 281.991 58.7637C285.925 58.7637 288.249 55.7356 288.249 52.1731C288.249 48.6106 285.925 45.5824 281.991 45.5824C278.235 45.5824 275.732 48.4324 275.732 52.1731Z" fill="white"/>
<path d="M311.496 47.0074C310.245 46.2949 307.741 45.2262 305.238 45.2262C302.734 45.2262 301.303 46.1168 301.303 47.7199C301.303 49.1449 302.734 49.5012 304.701 49.8574L306.847 50.2137C311.318 50.9262 314 52.7074 314 56.27C314 60.1887 310.602 62.8606 304.701 62.8606C302.555 62.8606 298.979 62.5043 295.939 60.1887L298.085 56.8043C299.515 57.8731 301.482 58.9418 304.88 58.9418C307.92 58.9418 309.529 58.0512 309.529 56.4481C309.529 55.3793 308.456 54.4887 305.953 54.1325L303.807 53.7762C299.336 53.2418 296.833 51.1043 296.833 47.7199C296.833 43.6231 300.052 41.1293 305.238 41.1293C308.456 41.1293 311.496 41.8418 313.463 43.2668L311.496 47.0074Z" fill="white"/>
</svg>
