<svg width="388" height="204" viewBox="0 0 388 204" fill="none" xmlns="http://www.w3.org/2000/svg">
<path fill-rule="evenodd" clip-rule="evenodd" d="M0 108V8H100V36H40V44H88V72H40V104H100V132H52V140H100V164H108V128H184V140H192V128H280V140H300V128H376V140H388V180H376V204H300V192H292V204H108V192H100V204H24V192H12V180H0V128H12V116H24V108H0ZM212 148H224V196H248V148H260V196H284V148H272V136H200V196H212V148ZM320 184V172H380V148H368V136H308V148H296V184H308V196H368V184H320ZM164 148V160H116V172H104V184H116V196H188V148H176V136H116V148H164ZM48 144H40V164H48V144ZM52 168V176H60V168H52ZM68 184H44V172H32V136H44V124H92V112H32V124H20V136H8V172H20V184H32V196H92V148H56V160H68V184ZM32 64H80V52H32V28H92V16H8V100H32V64ZM132 32V8H172V80H204V72H192V44H204V32H280V68H288V8H328V32H376V44H388V108H348V60H328V108H288V96H280V108H108V80H132V60H120V32H132ZM140 88H116V100H188V88H164V40H128V52H140V88ZM320 52H356V100H380V52H368V40H320V16H296V100H320V52ZM224 64V52H272V40H212V52H200V64H212V76H260V88H200V100H272V88H284V76H272V64H224ZM128 172V184H164V172H128ZM320 148V160H356V148H320ZM140 28H164V16H140V28Z" fill="#141723"/>
<path d="M8 92V8H92V20H32V44H80V56H32V92H8Z" fill="url(#paint0_linear)"/>
<path d="M140 20V8H164V20H140ZM116 92V80H140V44H128V32H164V80H188V92H116Z" fill="url(#paint1_linear)"/>
<path d="M200 92V80H260V68H212V56H200V44H212V32H272V44H224V56H272V68H284V80H272V92H200Z" fill="url(#paint2_linear)"/>
<path d="M296 92V8H320V32H368V44H380V92H356V44H320V92H296Z" fill="url(#paint3_linear)"/>
<path d="M32 188V176H20V164H8V128H20V116H32V104H92V116H44V128H32V164H44V176H68V152H56V140H92V188H32Z" fill="url(#paint4_linear)"/>
<path d="M116 188V176H104V164H116V152H164V140H116V128H176V140H188V188H116ZM128 176H164V164H128V176Z" fill="url(#paint5_linear)"/>
<path d="M200 188V128H272V140H284V188H260V140H248V188H224V140H212V188H200Z" fill="url(#paint6_linear)"/>
<path d="M308 188V176H296V140H308V128H368V140H380V164H320V176H368V188H308ZM320 152H356V140H320V152Z" fill="url(#paint7_linear)"/>
<path fill-rule="evenodd" clip-rule="evenodd" d="M0 100V0H100V28H40V36H88V64H40V96H100V124H52V132H100V156H108V120H184V132H192V120H280V132H300V120H376V132H388V172H376V196H300V184H292V196H108V184H100V196H24V184H12V172H0V120H12V108H24V100H0ZM212 140H224V188H248V140H260V188H284V140H272V128H200V188H212V140ZM320 176V164H380V140H368V128H308V140H296V176H308V188H368V176H320ZM164 140V152H116V164H104V176H116V188H188V140H176V128H116V140H164ZM48 136H40V156H48V136ZM52 160V168H60V160H52ZM68 176H44V164H32V128H44V116H92V104H32V116H20V128H8V164H20V176H32V188H92V140H56V152H68V176ZM32 56H80V44H32V20H92V8H8V92H32V56ZM132 24V0H172V72H204V64H192V36H204V24H280V60H288V0H328V24H376V36H388V100H348V52H328V100H288V88H280V100H108V72H132V52H120V24H132ZM140 80H116V92H188V80H164V32H128V44H140V80ZM320 44H356V92H380V44H368V32H320V8H296V92H320V44ZM224 56V44H272V32H212V44H200V56H212V68H260V80H200V92H272V80H284V68H272V56H224ZM128 164V176H164V164H128ZM320 140V152H356V140H320ZM140 20H164V8H140V20Z" fill="#282B39"/>
<defs>
<linearGradient id="paint0_linear" x1="200" y1="104" x2="200" y2="99" gradientUnits="userSpaceOnUse">
<stop stop-color="#D4816D"/>
<stop offset="1" stop-color="#3FB6B8"/>
</linearGradient>
<linearGradient id="paint1_linear" x1="200" y1="104" x2="200" y2="99" gradientUnits="userSpaceOnUse">
<stop stop-color="#D4816D"/>
<stop offset="1" stop-color="#3FB6B8"/>
</linearGradient>
<linearGradient id="paint2_linear" x1="200" y1="104" x2="200" y2="99" gradientUnits="userSpaceOnUse">
<stop stop-color="#D4816D"/>
<stop offset="1" stop-color="#3FB6B8"/>
</linearGradient>
<linearGradient id="paint3_linear" x1="200" y1="104" x2="200" y2="99" gradientUnits="userSpaceOnUse">
<stop stop-color="#D4816D"/>
<stop offset="1" stop-color="#3FB6B8"/>
</linearGradient>
<linearGradient id="paint4_linear" x1="200" y1="104" x2="200" y2="99" gradientUnits="userSpaceOnUse">
<stop stop-color="#D4816D"/>
<stop offset="1" stop-color="#3FB6B8"/>
</linearGradient>
<linearGradient id="paint5_linear" x1="200" y1="104" x2="200" y2="99" gradientUnits="userSpaceOnUse">
<stop stop-color="#D4816D"/>
<stop offset="1" stop-color="#3FB6B8"/>
</linearGradient>
<linearGradient id="paint6_linear" x1="200" y1="104" x2="200" y2="99" gradientUnits="userSpaceOnUse">
<stop stop-color="#D4816D"/>
<stop offset="1" stop-color="#3FB6B8"/>
</linearGradient>
<linearGradient id="paint7_linear" x1="200" y1="104" x2="200" y2="99" gradientUnits="userSpaceOnUse">
<stop stop-color="#D4816D"/>
<stop offset="1" stop-color="#3FB6B8"/>
</linearGradient>
</defs>
</svg>
