<svg width="442" height="198" viewBox="0 0 442 198" fill="none" xmlns="http://www.w3.org/2000/svg">
<g filter="url(#filter0_d)">
<path d="M54 86.25V11H129.25V21.75H75.5V43.25H118.5V54H75.5V86.25H54Z" fill="#FFC061"/>
<path d="M172.25 21.75V11H193.75V21.75H172.25ZM150.75 86.25V75.5H172.25V43.25H161.5V32.5H193.75V75.5H215.25V86.25H150.75Z" fill="#FFC061"/>
<path d="M226 86.25V75.5H279.75V64.75H236.75V54H226V43.25H236.75V32.5H290.5V43.25H247.5V54H290.5V64.75H301.25V75.5H290.5V86.25H226Z" fill="#FFC061"/>
<path d="M312 86.25V11H333.5V32.5H376.5V43.25H387.25V86.25H365.75V43.25H333.5V86.25H312Z" fill="#FFC061"/>
<path d="M11 172.25V97H86.25V107.75H32.5V129.25H75.5V140H32.5V172.25H11Z" fill="#FFC061"/>
<path d="M129.25 107.75V97H150.75V107.75H129.25ZM107.75 172.25V161.5H129.25V129.25H118.5V118.5H150.75V161.5H172.25V172.25H107.75Z" fill="#FFC061"/>
<path d="M193.75 183V172.25H236.75V161.5H193.75V150.75H183V129.25H193.75V118.5H258.25V172.25H247.5V183H193.75ZM204.5 150.75H236.75V129.25H204.5V150.75Z" fill="#FFC061"/>
<path d="M269 172.25V97H290.5V118.5H333.5V129.25H344.25V172.25H322.75V129.25H290.5V172.25H269Z" fill="#FFC061"/>
<path d="M387.25 172.25V129.25H365.75V118.5H387.25V97H408.75V118.5H430.25V129.25H408.75V172.25H387.25Z" fill="#FFC061"/>
</g>
<path fill-rule="evenodd" clip-rule="evenodd" d="M43 86H0V183.25H43.5V151H86.5V118.75H97.25V86H86.5V65H129.5V32.75H140.25V0H43V86ZM54 86.25H75.5V54H118.5V43.25H75.5V21.75H129.25V11H54V86.25ZM86.25 97H11V172.25H32.5V140H75.5V129.25H32.5V107.75H86.25V97ZM161.25 21.5H150.5V54.25H161.25V64.5H139.75V86H118.25V107.5H107.5V140.25H118.25V150.5H96.75V183.25H182.75V194H258.5V183.25H301.5V140.25H311.75V183.25H355.25V140.25H376.25V183.25H419.75V140.25H441.25V107.5H419.75V86H398.25V32.25H387.5V21.5H344.5V0H301V21.5H225.75V32.25H215V64.5H204.75V0H161.25V21.5ZM172.25 21.75H193.75V11H172.25V21.75ZM193.75 32.5H161.5V43.25H172.25V75.5H150.75V86.25H215.25V75.5H193.75V32.5ZM161.75 97.25V150.5H172V118.25H182.75V107.5H258V97.25H161.75ZM290.5 97H269V172.25H290.5V129.25H322.75V172.25H344.25V129.25H333.5V118.5H290.5V97ZM301.5 107.5V97.25H344.5V54.25H354.75V97.25H376.25V107.5H354.75V118.25H344.5V107.5H301.5ZM365.75 118.5V129.25H387.25V172.25H408.75V129.25H430.25V118.5H408.75V97H387.25V118.5H365.75ZM387.25 86.25V43.25H376.5V32.5H333.5V11H312V86.25H333.5V43.25H365.75V86.25H387.25ZM290.5 54H247.5V43.25H290.5V32.5H236.75V43.25H226V54H236.75V64.75H279.75V75.5H226V86.25H290.5V75.5H301.25V64.75H290.5V54ZM193.75 118.5V129.25H183V150.75H193.75V161.5H236.75V172.25H193.75V183H247.5V172.25H258.25V118.5H193.75ZM236.75 129.25H204.5V150.75H236.75V129.25ZM172.25 161.5H150.75V118.5H118.5V129.25H129.25V161.5H107.75V172.25H172.25V161.5ZM129.25 107.75H150.75V97H129.25V107.75Z" fill="#1E1E1E"/>
<defs>
<filter id="filter0_d" x="11" y="11" width="419.25" height="187" filterUnits="userSpaceOnUse" color-interpolation-filters="sRGB">
<feFlood flood-opacity="0" result="BackgroundImageFix"/>
<feColorMatrix in="SourceAlpha" type="matrix" values="0 0 0 0 0 0 0 0 0 0 0 0 0 0 0 0 0 0 127 0" result="hardAlpha"/>
<feOffset dy="15"/>
<feColorMatrix type="matrix" values="0 0 0 0 0 0 0 0 0 0 0 0 0 0 0 0 0 0 0.25 0"/>
<feBlend mode="normal" in2="BackgroundImageFix" result="effect1_dropShadow"/>
<feBlend mode="normal" in="SourceGraphic" in2="effect1_dropShadow" result="shape"/>
</filter>
</defs>
</svg>
