<?xml version="1.0" standalone="no"?>
<!DOCTYPE svg PUBLIC "-//W3C//DTD SVG 20010904//EN"
 "http://www.w3.org/TR/2001/REC-SVG-20010904/DTD/svg10.dtd">
<svg version="1.0" xmlns="http://www.w3.org/2000/svg"
 width="700.000000pt" height="700.000000pt" viewBox="0 0 700.000000 700.000000"
 preserveAspectRatio="xMidYMid meet">
<metadata>
Created by potrace 1.14, written by Peter Selinger 2001-2017
</metadata>
<g transform="translate(0.000000,700.000000) scale(0.100000,-0.100000)"
fill="#000000" stroke="none">
<path d="M2050 6990 c-30 -4 -80 -11 -110 -14 -30 -4 -106 -18 -169 -32 -549
-122 -1029 -443 -1359 -907 -34 -48 -62 -90 -62 -94 0 -3 -6 -14 -14 -22 -18
-20 -136 -241 -129 -241 3 0 -1 -10 -9 -22 -8 -13 -20 -36 -25 -53 -6 -16 -25
-68 -43 -115 -29 -80 -73 -239 -84 -305 -3 -16 -8 -41 -11 -55 -28 -143 -30
-236 -30 -1650 0 -1324 1 -1433 18 -1539 70 -439 244 -824 522 -1151 37 -44
199 -205 245 -245 262 -225 589 -393 925 -475 276 -68 190 -65 1760 -65 781 0
1452 3 1490 7 177 19 326 52 500 110 427 143 817 427 1084 790 106 145 120
166 192 303 113 214 207 504 235 725 3 25 9 74 14 110 5 36 8 706 6 1490 -2
1293 -3 1434 -19 1525 -24 142 -73 334 -113 445 -37 101 -150 336 -190 395
-13 20 -24 40 -24 45 0 6 -4 10 -10 10 -5 0 -10 6 -10 13 0 6 -9 23 -20 37
-11 14 -50 65 -87 114 -74 99 -233 265 -334 348 -262 218 -576 378 -897 458
-278 69 -249 68 -1792 67 -767 0 -1420 -3 -1450 -7z"/>
</g>
</svg>
